<mxfile host="app.diagrams.net" agent="Mozilla/5.0 (Macintosh; Intel Mac OS X 10_15_7) AppleWebKit/605.1.15 (KHTML, like Gecko) Version/18.3 Safari/605.1.15" version="26.0.16">
  <diagram name="Page-1" id="H1hxg6lt3ePp3OyjslaT">
    <mxGraphModel dx="662" dy="456" grid="1" gridSize="10" guides="1" tooltips="1" connect="1" arrows="1" fold="1" page="1" pageScale="1" pageWidth="850" pageHeight="1100" math="0" shadow="0">
      <root>
        <mxCell id="0" />
        <mxCell id="1" parent="0" />
        <mxCell id="PHSoznKrTX6SgeHKxCF0-56" value="" style="endArrow=classic;html=1;rounded=0;fillColor=#0050ef;strokeColor=#001DBC;dashed=1;strokeWidth=2;" parent="1" edge="1">
          <mxGeometry width="50" height="50" relative="1" as="geometry">
            <mxPoint x="200" y="370" as="sourcePoint" />
            <mxPoint x="510" y="150" as="targetPoint" />
          </mxGeometry>
        </mxCell>
        <mxCell id="PHSoznKrTX6SgeHKxCF0-48" value="" style="curved=1;endArrow=classic;html=1;rounded=0;dashed=1;fillColor=#fff2cc;strokeColor=#00FFFF;strokeWidth=2;" parent="1" edge="1">
          <mxGeometry width="50" height="50" relative="1" as="geometry">
            <mxPoint x="260" y="447.18" as="sourcePoint" />
            <mxPoint x="483.5" y="480" as="targetPoint" />
            <Array as="points">
              <mxPoint x="473.5" y="240" />
            </Array>
          </mxGeometry>
        </mxCell>
        <mxCell id="PHSoznKrTX6SgeHKxCF0-3" value="" style="shape=image;verticalLabelPosition=bottom;labelBackgroundColor=default;verticalAlign=top;aspect=fixed;imageAspect=0;editableCssRules=.*;image=data:image/svg+xml,PHN2ZyB4bWxucz0iaHR0cDovL3d3dy53My5vcmcvMjAwMC9zdmciIHZlcnNpb249IjEuMSIgdmlld0JveD0iMTY0LjgwMDA3OTM0NTcwMzEyIDE2NC42MDAwNjcxMzg2NzE4OCA2OTQuNTQyMjM2MzI4MTI1IDY5NC41NDA3NzE0ODQzNzUiIGhlaWdodD0iMTM1LjY1MjQ5NDQzMDU0MiIgd2lkdGg9IjEzNS42NTI3ODA1MzI4MzY5IiBjbGFzcz0iaWNvbiI+PHBhdGggZD0iTTg1Ny43IDgxNy43Yy0yOC44LTg2LjMtNTguNS0xNDkuNy0xMTIuMy0yMTAuNGw5LjktOS45YzQuNC00LjQgNy4zLTkuOSA4LjYtMTYgMS4yLTYgMC43LTEyLjMtMS42LTE4LjFsLTE1LjEtMzcuOCAxMDQuMy0xMTkuMWMzLjQtMy45IDUuOC04LjUgNy0xMy42IDEuMi01IDEuMS0xMC4yLTAuMi0xNS4ycy0zLjgtOS42LTcuMy0xMy40Yy0zLjUtMy44LTcuOS02LjctMTIuNy04LjRsLTI2Ny4xLTk0LjNjLTc0LjEtNjIuNi0xNjgtOTYuOS0yNjQuOS05Ni45aC0xMTBjLTguNCAwLTE2LjQgMy4zLTIyLjMgOS4yLTUuOSA1LjktOS4yIDE0LTkuMiAyMi4zVjMwNmMwIDk3IDM0LjMgMTkwLjkgOTcgMjY1bDk0LjMgMjY3LjFjMS43IDQuOSA0LjYgOS4yIDguNCAxMi43IDMuOCAzLjUgOC40IDYgMTMuNCA3LjMgNSAxLjMgMTAuMiAxLjQgMTUuMiAwLjJzOS43LTMuNiAxMy42LTdMNTI1LjggNzQ3bDM3LjggMTUuMWM1LjcgMi4zIDEyIDIuOSAxOC4xIDEuNiA2LTEuMiAxMS42LTQuMiAxNi04LjZsOS45LTkuOWM2MC42IDUzLjggMTI0IDgzLjUgMjEwLjQgMTEyLjMgNS42IDEuOSAxMS41IDIuMSAxNy4yIDAuOCA1LjctMS4zIDEwLjktNC4zIDE1LjEtOC40IDQuMS00LjEgNy4xLTkuNCA4LjQtMTUuMSAxLjEtNS41IDAuOC0xMS41LTEtMTcuMXpNNzczLjMgNDAwbC01MyA2MC42Yy0xNi40LTM1LjQtMzYuMy02OS01OS42LTEwMC4zTDc3My4zIDQwMHpNNDAwIDc3My4zbC0zOS43LTExMi42YzMxLjMgMjMuMiA2NC45IDQzLjIgMTAwLjMgNTkuNmwtNjAuNiA1M3ogbTE4NC40LTk0LjJMNTY3LjUgNjk2bC01Ni0yMi40Yy01MS40LTIwLjYtOTkuMS00OS41LTE0MS4xLTg1LjVsLTIxLjItMTguMmMtMzgtMzIuNi02OC42LTczLjEtODkuNS0xMTguNi0yMC45LTQ1LjUtMzEuOC05NS0zMS44LTE0NS4xdi03OC4zaDc4LjNjNTAuMSAwIDk5LjYgMTAuOCAxNDUuMSAzMS44IDQ1LjUgMjAuOSA4NiA1MS41IDExOC42IDg5LjVsMTguMiAyMS4yYzM2IDQyIDY0LjkgODkuNyA4NS41IDE0MS4xbDIyLjQgNTYtMTYuOSAxNi45LTk0LjcgOTQuN3ogbTY3LjcgMjEuNmw0OC42LTQ4LjZjMzEuOCAzNi41IDU0IDc0LjUgNzMuOCAxMjIuNC00Ny45LTE5LjgtODUuOS00Mi4xLTEyMi40LTczLjh6Ii8+PHBhdGggZD0iTTM4NS43IDI5MWMtMjUuMSAwLTQ5LjIgMTAtNjcgMjcuNy0xNy44IDE3LjgtMjcuNyA0MS45LTI3LjcgNjdzMTAgNDkuMiAyNy43IDY3YzE3LjggMTcuOCA0MS45IDI3LjcgNjcgMjcuN3M0OS4yLTEwIDY3LTI3LjdjMTcuOC0xNy44IDI3LjctNDEuOSAyNy43LTY3cy0xMC00OS4yLTI3LjctNjctNDEuOS0yNy43LTY3LTI3Ljd6TTQwOCA0MDhjLTUuOSA1LjktMTQgOS4yLTIyLjMgOS4yLTguNCAwLTE2LjQtMy4zLTIyLjMtOS4yLTUuOS01LjktOS4yLTE0LTkuMi0yMi4zIDAtOC40IDMuMy0xNi40IDkuMi0yMi4zIDUuOS01LjkgMTQtOS4yIDIyLjMtOS4yIDguNCAwIDE2LjQgMy4zIDIyLjMgOS4yIDUuOSA1LjkgOS4yIDE0IDkuMiAyMi4zIDAuMSA4LjQtMy4yIDE2LjQtOS4yIDIyLjN6Ii8+PC9zdmc+;rotation=90;direction=east;" parent="1" vertex="1">
          <mxGeometry x="220" y="340" width="76" height="76" as="geometry" />
        </mxCell>
        <mxCell id="PHSoznKrTX6SgeHKxCF0-7" value="" style="shape=flexArrow;endArrow=classic;html=1;rounded=0;endWidth=41;endSize=13.51;width=26;movable=1;resizable=1;rotatable=1;deletable=1;editable=1;locked=0;connectable=1;strokeWidth=2;fillColor=#d5e8d4;strokeColor=#82b366;" parent="1" edge="1">
          <mxGeometry width="50" height="50" relative="1" as="geometry">
            <mxPoint x="110" y="450" as="sourcePoint" />
            <mxPoint x="190" y="390" as="targetPoint" />
          </mxGeometry>
        </mxCell>
        <mxCell id="PHSoznKrTX6SgeHKxCF0-10" value="&lt;font style=&quot;font-size: 15px;&quot;&gt;&lt;b&gt;投影操作&lt;/b&gt;&lt;/font&gt;" style="text;html=1;align=center;verticalAlign=middle;whiteSpace=wrap;rounded=0;fillColor=none;strokeColor=none;rotation=-35;" parent="1" vertex="1">
          <mxGeometry x="111.52000000000001" y="407.18" width="73" height="30" as="geometry" />
        </mxCell>
        <mxCell id="PHSoznKrTX6SgeHKxCF0-13" value="" style="endArrow=none;html=1;rounded=0;strokeColor=#FF3333;strokeWidth=2;" parent="1" edge="1">
          <mxGeometry width="50" height="50" relative="1" as="geometry">
            <mxPoint x="60" y="456" as="sourcePoint" />
            <mxPoint x="93.52" y="445.68" as="targetPoint" />
          </mxGeometry>
        </mxCell>
        <mxCell id="PHSoznKrTX6SgeHKxCF0-14" value="" style="endArrow=none;html=1;rounded=0;strokeColor=#FF3333;strokeWidth=2;" parent="1" edge="1">
          <mxGeometry width="50" height="50" relative="1" as="geometry">
            <mxPoint x="100" y="500" as="sourcePoint" />
            <mxPoint x="111.52" y="468.68" as="targetPoint" />
          </mxGeometry>
        </mxCell>
        <mxCell id="PHSoznKrTX6SgeHKxCF0-15" value="" style="endArrow=none;html=1;rounded=0;fillColor=#f8cecc;strokeColor=#FF3333;strokeWidth=2;" parent="1" edge="1">
          <mxGeometry width="50" height="50" relative="1" as="geometry">
            <mxPoint x="80" y="480" as="sourcePoint" />
            <mxPoint x="99.52" y="458.68" as="targetPoint" />
          </mxGeometry>
        </mxCell>
        <mxCell id="PHSoznKrTX6SgeHKxCF0-16" value="" style="shape=flexArrow;endArrow=classic;html=1;rounded=0;endWidth=41;endSize=13.51;width=26;movable=1;resizable=1;rotatable=1;deletable=1;editable=1;locked=0;connectable=1;strokeWidth=2;fillColor=#fff2cc;strokeColor=#d6b656;" parent="1" edge="1">
          <mxGeometry width="50" height="50" relative="1" as="geometry">
            <mxPoint x="170" y="510" as="sourcePoint" />
            <mxPoint x="250" y="450" as="targetPoint" />
          </mxGeometry>
        </mxCell>
        <mxCell id="PHSoznKrTX6SgeHKxCF0-17" value="&lt;font style=&quot;font-size: 15px;&quot;&gt;&lt;b&gt;GD 操作&lt;/b&gt;&lt;/font&gt;" style="text;html=1;align=center;verticalAlign=middle;whiteSpace=wrap;rounded=0;fillColor=none;strokeColor=none;rotation=-40;" parent="1" vertex="1">
          <mxGeometry x="171.52" y="467.18" width="73" height="30" as="geometry" />
        </mxCell>
        <mxCell id="PHSoznKrTX6SgeHKxCF0-21" value="" style="endArrow=none;dashed=1;html=1;rounded=0;" parent="1" edge="1">
          <mxGeometry width="50" height="50" relative="1" as="geometry">
            <mxPoint x="244.52" y="228" as="sourcePoint" />
            <mxPoint x="470" y="490" as="targetPoint" />
          </mxGeometry>
        </mxCell>
        <mxCell id="PHSoznKrTX6SgeHKxCF0-33" value="&lt;span style=&quot;font-size: 15px;&quot;&gt;&lt;b&gt;ZF 解&lt;/b&gt;&lt;/span&gt;" style="text;html=1;align=center;verticalAlign=middle;whiteSpace=wrap;rounded=0;fillColor=none;strokeColor=none;rotation=0;" parent="1" vertex="1">
          <mxGeometry x="380" y="407.18" width="73" height="30" as="geometry" />
        </mxCell>
        <mxCell id="PHSoznKrTX6SgeHKxCF0-34" value="" style="endArrow=none;html=1;rounded=0;strokeColor=#FF3333;strokeWidth=2;" parent="1" edge="1">
          <mxGeometry width="50" height="50" relative="1" as="geometry">
            <mxPoint x="120.25999999999999" y="515.32" as="sourcePoint" />
            <mxPoint x="153.78" y="505" as="targetPoint" />
          </mxGeometry>
        </mxCell>
        <mxCell id="PHSoznKrTX6SgeHKxCF0-35" value="" style="endArrow=none;html=1;rounded=0;strokeColor=#FF3333;strokeWidth=2;" parent="1" edge="1">
          <mxGeometry width="50" height="50" relative="1" as="geometry">
            <mxPoint x="160.26" y="559.32" as="sourcePoint" />
            <mxPoint x="171.78" y="528" as="targetPoint" />
          </mxGeometry>
        </mxCell>
        <mxCell id="PHSoznKrTX6SgeHKxCF0-36" value="" style="endArrow=none;html=1;rounded=0;fillColor=#f8cecc;strokeColor=#FF3333;strokeWidth=2;" parent="1" edge="1">
          <mxGeometry width="50" height="50" relative="1" as="geometry">
            <mxPoint x="140.26" y="539.32" as="sourcePoint" />
            <mxPoint x="159.78" y="518" as="targetPoint" />
          </mxGeometry>
        </mxCell>
        <mxCell id="PHSoznKrTX6SgeHKxCF0-37" value="" style="shape=image;verticalLabelPosition=bottom;labelBackgroundColor=default;verticalAlign=top;aspect=fixed;imageAspect=0;editableCssRules=.*;image=data:image/svg+xml,PHN2ZyB4bWxucz0iaHR0cDovL3d3dy53My5vcmcvMjAwMC9zdmciIHZlcnNpb249IjEuMSIgdmlld0JveD0iMTY0LjgwMDA3OTM0NTcwMzEyIDE2NC42MDAwNjcxMzg2NzE4OCA2OTQuNTQyMjM2MzI4MTI1IDY5NC41NDA3NzE0ODQzNzUiIGhlaWdodD0iMTM1LjY1MjQ5NDQzMDU0MiIgd2lkdGg9IjEzNS42NTI3ODA1MzI4MzY5IiBjbGFzcz0iaWNvbiI+PHBhdGggZD0iTTg1Ny43IDgxNy43Yy0yOC44LTg2LjMtNTguNS0xNDkuNy0xMTIuMy0yMTAuNGw5LjktOS45YzQuNC00LjQgNy4zLTkuOSA4LjYtMTYgMS4yLTYgMC43LTEyLjMtMS42LTE4LjFsLTE1LjEtMzcuOCAxMDQuMy0xMTkuMWMzLjQtMy45IDUuOC04LjUgNy0xMy42IDEuMi01IDEuMS0xMC4yLTAuMi0xNS4ycy0zLjgtOS42LTcuMy0xMy40Yy0zLjUtMy44LTcuOS02LjctMTIuNy04LjRsLTI2Ny4xLTk0LjNjLTc0LjEtNjIuNi0xNjgtOTYuOS0yNjQuOS05Ni45aC0xMTBjLTguNCAwLTE2LjQgMy4zLTIyLjMgOS4yLTUuOSA1LjktOS4yIDE0LTkuMiAyMi4zVjMwNmMwIDk3IDM0LjMgMTkwLjkgOTcgMjY1bDk0LjMgMjY3LjFjMS43IDQuOSA0LjYgOS4yIDguNCAxMi43IDMuOCAzLjUgOC40IDYgMTMuNCA3LjMgNSAxLjMgMTAuMiAxLjQgMTUuMiAwLjJzOS43LTMuNiAxMy42LTdMNTI1LjggNzQ3bDM3LjggMTUuMWM1LjcgMi4zIDEyIDIuOSAxOC4xIDEuNiA2LTEuMiAxMS42LTQuMiAxNi04LjZsOS45LTkuOWM2MC42IDUzLjggMTI0IDgzLjUgMjEwLjQgMTEyLjMgNS42IDEuOSAxMS41IDIuMSAxNy4yIDAuOCA1LjctMS4zIDEwLjktNC4zIDE1LjEtOC40IDQuMS00LjEgNy4xLTkuNCA4LjQtMTUuMSAxLjEtNS41IDAuOC0xMS41LTEtMTcuMXpNNzczLjMgNDAwbC01MyA2MC42Yy0xNi40LTM1LjQtMzYuMy02OS01OS42LTEwMC4zTDc3My4zIDQwMHpNNDAwIDc3My4zbC0zOS43LTExMi42YzMxLjMgMjMuMiA2NC45IDQzLjIgMTAwLjMgNTkuNmwtNjAuNiA1M3ogbTE4NC40LTk0LjJMNTY3LjUgNjk2bC01Ni0yMi40Yy01MS40LTIwLjYtOTkuMS00OS41LTE0MS4xLTg1LjVsLTIxLjItMTguMmMtMzgtMzIuNi02OC42LTczLjEtODkuNS0xMTguNi0yMC45LTQ1LjUtMzEuOC05NS0zMS44LTE0NS4xdi03OC4zaDc4LjNjNTAuMSAwIDk5LjYgMTAuOCAxNDUuMSAzMS44IDQ1LjUgMjAuOSA4NiA1MS41IDExOC42IDg5LjVsMTguMiAyMS4yYzM2IDQyIDY0LjkgODkuNyA4NS41IDE0MS4xbDIyLjQgNTYtMTYuOSAxNi45LTk0LjcgOTQuN3ogbTY3LjcgMjEuNmw0OC42LTQ4LjZjMzEuOCAzNi41IDU0IDc0LjUgNzMuOCAxMjIuNC00Ny45LTE5LjgtODUuOS00Mi4xLTEyMi40LTczLjh6Ii8+PHBhdGggZD0iTTM4NS43IDI5MWMtMjUuMSAwLTQ5LjIgMTAtNjcgMjcuNy0xNy44IDE3LjgtMjcuNyA0MS45LTI3LjcgNjdzMTAgNDkuMiAyNy43IDY3YzE3LjggMTcuOCA0MS45IDI3LjcgNjcgMjcuN3M0OS4yLTEwIDY3LTI3LjdjMTcuOC0xNy44IDI3LjctNDEuOSAyNy43LTY3cy0xMC00OS4yLTI3LjctNjctNDEuOS0yNy43LTY3LTI3Ljd6TTQwOCA0MDhjLTUuOSA1LjktMTQgOS4yLTIyLjMgOS4yLTguNCAwLTE2LjQtMy4zLTIyLjMtOS4yLTUuOS01LjktOS4yLTE0LTkuMi0yMi4zIDAtOC40IDMuMy0xNi40IDkuMi0yMi4zIDUuOS01LjkgMTQtOS4yIDIyLjMtOS4yIDguNCAwIDE2LjQgMy4zIDIyLjMgOS4yIDUuOSA1LjkgOS4yIDE0IDkuMiAyMi4zIDAuMSA4LjQtMy4yIDE2LjQtOS4yIDIyLjN6Ii8+PC9zdmc+;rotation=120;direction=east;" parent="1" vertex="1">
          <mxGeometry x="489.5" y="204.18" width="76" height="76" as="geometry" />
        </mxCell>
        <mxCell id="PHSoznKrTX6SgeHKxCF0-38" value="" style="shape=flexArrow;endArrow=classic;html=1;rounded=0;endWidth=41;endSize=13.51;width=26;movable=1;resizable=1;rotatable=1;deletable=1;editable=1;locked=0;connectable=1;strokeWidth=2;fillColor=#d5e8d4;strokeColor=#82b366;" parent="1" edge="1">
          <mxGeometry width="50" height="50" relative="1" as="geometry">
            <mxPoint x="380" y="270" as="sourcePoint" />
            <mxPoint x="460" y="210" as="targetPoint" />
          </mxGeometry>
        </mxCell>
        <mxCell id="PHSoznKrTX6SgeHKxCF0-39" value="&lt;font style=&quot;font-size: 15px;&quot;&gt;&lt;b&gt;投影操作&lt;/b&gt;&lt;/font&gt;" style="text;html=1;align=center;verticalAlign=middle;whiteSpace=wrap;rounded=0;fillColor=none;strokeColor=none;rotation=-35;" parent="1" vertex="1">
          <mxGeometry x="381.52" y="227.18" width="73" height="30" as="geometry" />
        </mxCell>
        <mxCell id="PHSoznKrTX6SgeHKxCF0-40" value="" style="endArrow=none;html=1;rounded=0;strokeColor=#FF3333;strokeWidth=2;" parent="1" edge="1">
          <mxGeometry width="50" height="50" relative="1" as="geometry">
            <mxPoint x="330" y="276" as="sourcePoint" />
            <mxPoint x="363.52" y="265.68" as="targetPoint" />
          </mxGeometry>
        </mxCell>
        <mxCell id="PHSoznKrTX6SgeHKxCF0-41" value="" style="endArrow=none;html=1;rounded=0;strokeColor=#FF3333;strokeWidth=2;" parent="1" edge="1">
          <mxGeometry width="50" height="50" relative="1" as="geometry">
            <mxPoint x="370" y="320" as="sourcePoint" />
            <mxPoint x="381.52" y="288.68" as="targetPoint" />
          </mxGeometry>
        </mxCell>
        <mxCell id="PHSoznKrTX6SgeHKxCF0-42" value="" style="endArrow=none;html=1;rounded=0;fillColor=#f8cecc;strokeColor=#FF3333;strokeWidth=2;" parent="1" edge="1">
          <mxGeometry width="50" height="50" relative="1" as="geometry">
            <mxPoint x="350" y="300" as="sourcePoint" />
            <mxPoint x="369.52" y="278.68" as="targetPoint" />
          </mxGeometry>
        </mxCell>
        <mxCell id="PHSoznKrTX6SgeHKxCF0-43" value="" style="shape=flexArrow;endArrow=classic;html=1;rounded=0;endWidth=41;endSize=13.51;width=26;movable=1;resizable=1;rotatable=1;deletable=1;editable=1;locked=0;connectable=1;strokeWidth=2;fillColor=#fff2cc;strokeColor=#d6b656;" parent="1" edge="1">
          <mxGeometry width="50" height="50" relative="1" as="geometry">
            <mxPoint x="409.24" y="334.9999999999998" as="sourcePoint" />
            <mxPoint x="489.5" y="394.9999999999998" as="targetPoint" />
          </mxGeometry>
        </mxCell>
        <mxCell id="PHSoznKrTX6SgeHKxCF0-44" value="&lt;font style=&quot;font-size: 15px;&quot;&gt;&lt;b&gt;GD 操作&lt;/b&gt;&lt;/font&gt;" style="text;html=1;align=center;verticalAlign=middle;whiteSpace=wrap;rounded=0;fillColor=none;strokeColor=none;rotation=35;flipV=0;flipH=0;" parent="1" vertex="1">
          <mxGeometry x="408.24" y="346" width="73" height="30" as="geometry" />
        </mxCell>
        <mxCell id="PHSoznKrTX6SgeHKxCF0-45" value="" style="endArrow=none;html=1;rounded=0;strokeColor=#FF3333;strokeWidth=2;" parent="1" edge="1">
          <mxGeometry width="50" height="50" relative="1" as="geometry">
            <mxPoint x="399.24" y="300" as="sourcePoint" />
            <mxPoint x="413.24" y="320" as="targetPoint" />
          </mxGeometry>
        </mxCell>
        <mxCell id="PHSoznKrTX6SgeHKxCF0-46" value="" style="endArrow=none;html=1;rounded=0;strokeColor=#FF3333;strokeWidth=2;" parent="1" edge="1">
          <mxGeometry width="50" height="50" relative="1" as="geometry">
            <mxPoint x="377.24" y="348" as="sourcePoint" />
            <mxPoint x="398.24" y="346" as="targetPoint" />
          </mxGeometry>
        </mxCell>
        <mxCell id="PHSoznKrTX6SgeHKxCF0-47" value="" style="endArrow=none;html=1;rounded=0;fillColor=#f8cecc;strokeColor=#FF3333;strokeWidth=2;" parent="1" edge="1">
          <mxGeometry width="50" height="50" relative="1" as="geometry">
            <mxPoint x="377.24" y="318" as="sourcePoint" />
            <mxPoint x="404.24" y="331" as="targetPoint" />
          </mxGeometry>
        </mxCell>
        <mxCell id="PHSoznKrTX6SgeHKxCF0-52" value="&lt;span style=&quot;font-size: 15px;&quot;&gt;&lt;b&gt;第一阶段&lt;/b&gt;&lt;/span&gt;&lt;span style=&quot;caret-color: rgba(0, 0, 0, 0); color: rgba(0, 0, 0, 0); font-family: monospace; font-size: 0px; text-align: start; white-space: nowrap;&quot;&gt;%3CmxGraphModel%3E%3Croot%3E%3CmxCell%20id%3D%220%22%2F%3E%3CmxCell%20id%3D%221%22%20parent%3D%220%22%2F%3E%3CmxCell%20id%3D%222%22%20value%3D%22%26lt%3Bspan%20style%3D%26quot%3Bfont-size%3A%2015px%3B%26quot%3B%26gt%3B%26lt%3Bb%26gt%3BZF%20%E8%A7%A3%26lt%3B%2Fb%26gt%3B%26lt%3B%2Fspan%26gt%3B%22%20style%3D%22text%3Bhtml%3D1%3Balign%3Dcenter%3BverticalAlign%3Dmiddle%3BwhiteSpace%3Dwrap%3Brounded%3D0%3BfillColor%3Dnone%3BstrokeColor%3Dnone%3Brotation%3D0%3B%22%20vertex%3D%221%22%20parent%3D%221%22%3E%3CmxGeometry%20x%3D%22380%22%20y%3D%22407.18%22%20width%3D%2273%22%20height%3D%2230%22%20as%3D%22geometry%22%2F%3E%3C%2FmxCell%3E%3C%2Froot%3E%3C%2FmxGraphModel%3E&lt;/span&gt;" style="text;html=1;align=center;verticalAlign=middle;whiteSpace=wrap;rounded=0;fillColor=none;strokeColor=none;rotation=0;" parent="1" vertex="1">
          <mxGeometry x="171.51999999999998" y="240" width="73" height="30" as="geometry" />
        </mxCell>
        <mxCell id="PHSoznKrTX6SgeHKxCF0-53" value="&lt;span style=&quot;font-size: 15px;&quot;&gt;&lt;b&gt;第二阶段&lt;/b&gt;&lt;/span&gt;&lt;span style=&quot;caret-color: rgba(0, 0, 0, 0); color: rgba(0, 0, 0, 0); font-family: monospace; font-size: 0px; text-align: start; white-space: nowrap;&quot;&gt;%3CmxGraphModel%3E%3Croot%3E%3CmxCell%20id%3D%220%22%2F%3E%3CmxCell%20id%3D%221%22%20parent%3D%220%22%2F%3E%3CmxCell%20id%3D%222%22%20value%3D%22%26lt%3Bspan%20style%3D%26quot%3Bfont-size%3A%2015px%3B%26quot%3B%26gt%3B%26lt%3Bb%26gt%3BZF%20%E8%A7%A3%26lt%3B%2Fb%26gt%3B%26lt%3B%2Fspan%26gt%3B%22%20style%3D%22text%3Bhtml%3D1%3Balign%3Dcenter%3BverticalAlign%3Dmiddle%3BwhiteSpace%3Dwrap%3Brounded%3D0%3BfillColor%3Dnone%3BstrokeColor%3Dnone%3Brotation%3D0%3B%22%20vertex%3D%221%22%20parent%3D%221%22%3E%3CmxGeometry%20x%3D%22380%22%20y%3D%22407.18%22%20width%3D%2273%22%20height%3D%2230%22%20as%3D%22geometry%22%2F%3E%3C%2FmxCell%3E%3C%2Froot%3E%3C%2FmxGraphModel%3E&lt;/span&gt;" style="text;html=1;align=center;verticalAlign=middle;whiteSpace=wrap;rounded=0;fillColor=none;strokeColor=none;rotation=0;" parent="1" vertex="1">
          <mxGeometry x="270" y="210" width="73" height="30" as="geometry" />
        </mxCell>
        <mxCell id="PHSoznKrTX6SgeHKxCF0-54" value="" style="ellipse;whiteSpace=wrap;html=1;aspect=fixed;fillColor=#ffe6cc;strokeColor=#d79b00;" parent="1" vertex="1">
          <mxGeometry x="521.5" y="100" width="50" height="50" as="geometry" />
        </mxCell>
        <mxCell id="PHSoznKrTX6SgeHKxCF0-55" value="&lt;span style=&quot;font-size: 15px;&quot;&gt;&lt;b&gt;ML 解&lt;/b&gt;&lt;/span&gt;" style="text;html=1;align=center;verticalAlign=middle;whiteSpace=wrap;rounded=0;fillColor=none;strokeColor=none;rotation=0;" parent="1" vertex="1">
          <mxGeometry x="510" y="110" width="73" height="30" as="geometry" />
        </mxCell>
        <mxCell id="PKHNTTSIY2TECGYe-GWs-1" value="" style="endArrow=classic;html=1;rounded=0;fillColor=#0050ef;strokeColor=#001DBC;dashed=1;strokeWidth=2;" edge="1" parent="1">
          <mxGeometry width="50" height="50" relative="1" as="geometry">
            <mxPoint x="1160" y="370" as="sourcePoint" />
            <mxPoint x="1470" y="150" as="targetPoint" />
          </mxGeometry>
        </mxCell>
        <mxCell id="PKHNTTSIY2TECGYe-GWs-2" value="" style="curved=1;endArrow=classic;html=1;rounded=0;dashed=1;fillColor=#fff2cc;strokeColor=#00FFFF;strokeWidth=2;" edge="1" parent="1">
          <mxGeometry width="50" height="50" relative="1" as="geometry">
            <mxPoint x="1220" y="447.18" as="sourcePoint" />
            <mxPoint x="1443.5" y="480" as="targetPoint" />
            <Array as="points">
              <mxPoint x="1433.5" y="240" />
            </Array>
          </mxGeometry>
        </mxCell>
        <mxCell id="PKHNTTSIY2TECGYe-GWs-3" value="" style="shape=image;verticalLabelPosition=bottom;labelBackgroundColor=default;verticalAlign=top;aspect=fixed;imageAspect=0;editableCssRules=.*;image=data:image/svg+xml,PHN2ZyB4bWxucz0iaHR0cDovL3d3dy53My5vcmcvMjAwMC9zdmciIHZlcnNpb249IjEuMSIgdmlld0JveD0iMTY0LjgwMDA3OTM0NTcwMzEyIDE2NC42MDAwNjcxMzg2NzE4OCA2OTQuNTQyMjM2MzI4MTI1IDY5NC41NDA3NzE0ODQzNzUiIGhlaWdodD0iMTM1LjY1MjQ5NDQzMDU0MiIgd2lkdGg9IjEzNS42NTI3ODA1MzI4MzY5IiBjbGFzcz0iaWNvbiI+PHBhdGggZD0iTTg1Ny43IDgxNy43Yy0yOC44LTg2LjMtNTguNS0xNDkuNy0xMTIuMy0yMTAuNGw5LjktOS45YzQuNC00LjQgNy4zLTkuOSA4LjYtMTYgMS4yLTYgMC43LTEyLjMtMS42LTE4LjFsLTE1LjEtMzcuOCAxMDQuMy0xMTkuMWMzLjQtMy45IDUuOC04LjUgNy0xMy42IDEuMi01IDEuMS0xMC4yLTAuMi0xNS4ycy0zLjgtOS42LTcuMy0xMy40Yy0zLjUtMy44LTcuOS02LjctMTIuNy04LjRsLTI2Ny4xLTk0LjNjLTc0LjEtNjIuNi0xNjgtOTYuOS0yNjQuOS05Ni45aC0xMTBjLTguNCAwLTE2LjQgMy4zLTIyLjMgOS4yLTUuOSA1LjktOS4yIDE0LTkuMiAyMi4zVjMwNmMwIDk3IDM0LjMgMTkwLjkgOTcgMjY1bDk0LjMgMjY3LjFjMS43IDQuOSA0LjYgOS4yIDguNCAxMi43IDMuOCAzLjUgOC40IDYgMTMuNCA3LjMgNSAxLjMgMTAuMiAxLjQgMTUuMiAwLjJzOS43LTMuNiAxMy42LTdMNTI1LjggNzQ3bDM3LjggMTUuMWM1LjcgMi4zIDEyIDIuOSAxOC4xIDEuNiA2LTEuMiAxMS42LTQuMiAxNi04LjZsOS45LTkuOWM2MC42IDUzLjggMTI0IDgzLjUgMjEwLjQgMTEyLjMgNS42IDEuOSAxMS41IDIuMSAxNy4yIDAuOCA1LjctMS4zIDEwLjktNC4zIDE1LjEtOC40IDQuMS00LjEgNy4xLTkuNCA4LjQtMTUuMSAxLjEtNS41IDAuOC0xMS41LTEtMTcuMXpNNzczLjMgNDAwbC01MyA2MC42Yy0xNi40LTM1LjQtMzYuMy02OS01OS42LTEwMC4zTDc3My4zIDQwMHpNNDAwIDc3My4zbC0zOS43LTExMi42YzMxLjMgMjMuMiA2NC45IDQzLjIgMTAwLjMgNTkuNmwtNjAuNiA1M3ogbTE4NC40LTk0LjJMNTY3LjUgNjk2bC01Ni0yMi40Yy01MS40LTIwLjYtOTkuMS00OS41LTE0MS4xLTg1LjVsLTIxLjItMTguMmMtMzgtMzIuNi02OC42LTczLjEtODkuNS0xMTguNi0yMC45LTQ1LjUtMzEuOC05NS0zMS44LTE0NS4xdi03OC4zaDc4LjNjNTAuMSAwIDk5LjYgMTAuOCAxNDUuMSAzMS44IDQ1LjUgMjAuOSA4NiA1MS41IDExOC42IDg5LjVsMTguMiAyMS4yYzM2IDQyIDY0LjkgODkuNyA4NS41IDE0MS4xbDIyLjQgNTYtMTYuOSAxNi45LTk0LjcgOTQuN3ogbTY3LjcgMjEuNmw0OC42LTQ4LjZjMzEuOCAzNi41IDU0IDc0LjUgNzMuOCAxMjIuNC00Ny45LTE5LjgtODUuOS00Mi4xLTEyMi40LTczLjh6Ii8+PHBhdGggZD0iTTM4NS43IDI5MWMtMjUuMSAwLTQ5LjIgMTAtNjcgMjcuNy0xNy44IDE3LjgtMjcuNyA0MS45LTI3LjcgNjdzMTAgNDkuMiAyNy43IDY3YzE3LjggMTcuOCA0MS45IDI3LjcgNjcgMjcuN3M0OS4yLTEwIDY3LTI3LjdjMTcuOC0xNy44IDI3LjctNDEuOSAyNy43LTY3cy0xMC00OS4yLTI3LjctNjctNDEuOS0yNy43LTY3LTI3Ljd6TTQwOCA0MDhjLTUuOSA1LjktMTQgOS4yLTIyLjMgOS4yLTguNCAwLTE2LjQtMy4zLTIyLjMtOS4yLTUuOS01LjktOS4yLTE0LTkuMi0yMi4zIDAtOC40IDMuMy0xNi40IDkuMi0yMi4zIDUuOS01LjkgMTQtOS4yIDIyLjMtOS4yIDguNCAwIDE2LjQgMy4zIDIyLjMgOS4yIDUuOSA1LjkgOS4yIDE0IDkuMiAyMi4zIDAuMSA4LjQtMy4yIDE2LjQtOS4yIDIyLjN6Ii8+PC9zdmc+;rotation=90;direction=east;" vertex="1" parent="1">
          <mxGeometry x="1180" y="340" width="76" height="76" as="geometry" />
        </mxCell>
        <mxCell id="PKHNTTSIY2TECGYe-GWs-4" value="" style="shape=flexArrow;endArrow=classic;html=1;rounded=0;endWidth=41;endSize=14.091999999999999;width=41.2;movable=1;resizable=1;rotatable=1;deletable=1;editable=1;locked=0;connectable=1;strokeWidth=2;fillColor=#d5e8d4;strokeColor=#82b366;" edge="1" parent="1">
          <mxGeometry width="50" height="50" relative="1" as="geometry">
            <mxPoint x="1070" y="450" as="sourcePoint" />
            <mxPoint x="1150" y="390" as="targetPoint" />
          </mxGeometry>
        </mxCell>
        <mxCell id="PKHNTTSIY2TECGYe-GWs-5" value="&lt;span style=&quot;font-size: 15px;&quot;&gt;&lt;b&gt;神经网络加持&lt;/b&gt;&lt;/span&gt;" style="text;html=1;align=center;verticalAlign=middle;whiteSpace=wrap;rounded=0;fillColor=none;strokeColor=none;rotation=323;" vertex="1" parent="1">
          <mxGeometry x="1071.52" y="407.18" width="73" height="30" as="geometry" />
        </mxCell>
        <mxCell id="PKHNTTSIY2TECGYe-GWs-6" value="" style="endArrow=none;html=1;rounded=0;strokeColor=#FF3333;strokeWidth=2;" edge="1" parent="1">
          <mxGeometry width="50" height="50" relative="1" as="geometry">
            <mxPoint x="1020" y="456" as="sourcePoint" />
            <mxPoint x="1053.52" y="445.68" as="targetPoint" />
          </mxGeometry>
        </mxCell>
        <mxCell id="PKHNTTSIY2TECGYe-GWs-7" value="" style="endArrow=none;html=1;rounded=0;strokeColor=#FF3333;strokeWidth=2;" edge="1" parent="1">
          <mxGeometry width="50" height="50" relative="1" as="geometry">
            <mxPoint x="1060" y="500" as="sourcePoint" />
            <mxPoint x="1071.52" y="468.68" as="targetPoint" />
          </mxGeometry>
        </mxCell>
        <mxCell id="PKHNTTSIY2TECGYe-GWs-8" value="" style="endArrow=none;html=1;rounded=0;fillColor=#f8cecc;strokeColor=#FF3333;strokeWidth=2;" edge="1" parent="1">
          <mxGeometry width="50" height="50" relative="1" as="geometry">
            <mxPoint x="1040" y="480" as="sourcePoint" />
            <mxPoint x="1059.52" y="458.68" as="targetPoint" />
          </mxGeometry>
        </mxCell>
        <mxCell id="PKHNTTSIY2TECGYe-GWs-9" value="" style="shape=flexArrow;endArrow=classic;html=1;rounded=0;endWidth=41;endSize=14.440000000000001;width=39.6;movable=1;resizable=1;rotatable=1;deletable=1;editable=1;locked=0;connectable=1;strokeWidth=2;fillColor=#fff2cc;strokeColor=#d6b656;" edge="1" parent="1">
          <mxGeometry width="50" height="50" relative="1" as="geometry">
            <mxPoint x="1130" y="510" as="sourcePoint" />
            <mxPoint x="1210" y="450" as="targetPoint" />
          </mxGeometry>
        </mxCell>
        <mxCell id="PKHNTTSIY2TECGYe-GWs-10" value="&lt;span style=&quot;font-size: 15px;&quot;&gt;&lt;b&gt;传统迭代算法&lt;/b&gt;&lt;/span&gt;" style="text;html=1;align=center;verticalAlign=middle;whiteSpace=wrap;rounded=0;fillColor=none;strokeColor=none;rotation=-35;" vertex="1" parent="1">
          <mxGeometry x="1131.52" y="467.18" width="73" height="30" as="geometry" />
        </mxCell>
        <mxCell id="PKHNTTSIY2TECGYe-GWs-11" value="" style="endArrow=none;dashed=1;html=1;rounded=0;" edge="1" parent="1">
          <mxGeometry width="50" height="50" relative="1" as="geometry">
            <mxPoint x="1204.52" y="228" as="sourcePoint" />
            <mxPoint x="1430" y="490" as="targetPoint" />
          </mxGeometry>
        </mxCell>
        <mxCell id="PKHNTTSIY2TECGYe-GWs-12" value="&lt;span style=&quot;font-size: 15px;&quot;&gt;&lt;b&gt;传统迭代算法的性能上界&lt;/b&gt;&lt;/span&gt;" style="text;html=1;align=center;verticalAlign=middle;whiteSpace=wrap;rounded=0;fillColor=none;strokeColor=none;rotation=0;" vertex="1" parent="1">
          <mxGeometry x="1320" y="416" width="103" height="30" as="geometry" />
        </mxCell>
        <mxCell id="PKHNTTSIY2TECGYe-GWs-13" value="" style="endArrow=none;html=1;rounded=0;strokeColor=#FF3333;strokeWidth=2;" edge="1" parent="1">
          <mxGeometry width="50" height="50" relative="1" as="geometry">
            <mxPoint x="1080.26" y="515.32" as="sourcePoint" />
            <mxPoint x="1113.78" y="505" as="targetPoint" />
          </mxGeometry>
        </mxCell>
        <mxCell id="PKHNTTSIY2TECGYe-GWs-14" value="" style="endArrow=none;html=1;rounded=0;strokeColor=#FF3333;strokeWidth=2;" edge="1" parent="1">
          <mxGeometry width="50" height="50" relative="1" as="geometry">
            <mxPoint x="1120.26" y="559.32" as="sourcePoint" />
            <mxPoint x="1131.78" y="528" as="targetPoint" />
          </mxGeometry>
        </mxCell>
        <mxCell id="PKHNTTSIY2TECGYe-GWs-15" value="" style="endArrow=none;html=1;rounded=0;fillColor=#f8cecc;strokeColor=#FF3333;strokeWidth=2;" edge="1" parent="1">
          <mxGeometry width="50" height="50" relative="1" as="geometry">
            <mxPoint x="1100.26" y="539.32" as="sourcePoint" />
            <mxPoint x="1119.78" y="518" as="targetPoint" />
          </mxGeometry>
        </mxCell>
        <mxCell id="PKHNTTSIY2TECGYe-GWs-16" value="" style="shape=image;verticalLabelPosition=bottom;labelBackgroundColor=default;verticalAlign=top;aspect=fixed;imageAspect=0;editableCssRules=.*;image=data:image/svg+xml,PHN2ZyB4bWxucz0iaHR0cDovL3d3dy53My5vcmcvMjAwMC9zdmciIHZlcnNpb249IjEuMSIgdmlld0JveD0iMTY0LjgwMDA3OTM0NTcwMzEyIDE2NC42MDAwNjcxMzg2NzE4OCA2OTQuNTQyMjM2MzI4MTI1IDY5NC41NDA3NzE0ODQzNzUiIGhlaWdodD0iMTM1LjY1MjQ5NDQzMDU0MiIgd2lkdGg9IjEzNS42NTI3ODA1MzI4MzY5IiBjbGFzcz0iaWNvbiI+PHBhdGggZD0iTTg1Ny43IDgxNy43Yy0yOC44LTg2LjMtNTguNS0xNDkuNy0xMTIuMy0yMTAuNGw5LjktOS45YzQuNC00LjQgNy4zLTkuOSA4LjYtMTYgMS4yLTYgMC43LTEyLjMtMS42LTE4LjFsLTE1LjEtMzcuOCAxMDQuMy0xMTkuMWMzLjQtMy45IDUuOC04LjUgNy0xMy42IDEuMi01IDEuMS0xMC4yLTAuMi0xNS4ycy0zLjgtOS42LTcuMy0xMy40Yy0zLjUtMy44LTcuOS02LjctMTIuNy04LjRsLTI2Ny4xLTk0LjNjLTc0LjEtNjIuNi0xNjgtOTYuOS0yNjQuOS05Ni45aC0xMTBjLTguNCAwLTE2LjQgMy4zLTIyLjMgOS4yLTUuOSA1LjktOS4yIDE0LTkuMiAyMi4zVjMwNmMwIDk3IDM0LjMgMTkwLjkgOTcgMjY1bDk0LjMgMjY3LjFjMS43IDQuOSA0LjYgOS4yIDguNCAxMi43IDMuOCAzLjUgOC40IDYgMTMuNCA3LjMgNSAxLjMgMTAuMiAxLjQgMTUuMiAwLjJzOS43LTMuNiAxMy42LTdMNTI1LjggNzQ3bDM3LjggMTUuMWM1LjcgMi4zIDEyIDIuOSAxOC4xIDEuNiA2LTEuMiAxMS42LTQuMiAxNi04LjZsOS45LTkuOWM2MC42IDUzLjggMTI0IDgzLjUgMjEwLjQgMTEyLjMgNS42IDEuOSAxMS41IDIuMSAxNy4yIDAuOCA1LjctMS4zIDEwLjktNC4zIDE1LjEtOC40IDQuMS00LjEgNy4xLTkuNCA4LjQtMTUuMSAxLjEtNS41IDAuOC0xMS41LTEtMTcuMXpNNzczLjMgNDAwbC01MyA2MC42Yy0xNi40LTM1LjQtMzYuMy02OS01OS42LTEwMC4zTDc3My4zIDQwMHpNNDAwIDc3My4zbC0zOS43LTExMi42YzMxLjMgMjMuMiA2NC45IDQzLjIgMTAwLjMgNTkuNmwtNjAuNiA1M3ogbTE4NC40LTk0LjJMNTY3LjUgNjk2bC01Ni0yMi40Yy01MS40LTIwLjYtOTkuMS00OS41LTE0MS4xLTg1LjVsLTIxLjItMTguMmMtMzgtMzIuNi02OC42LTczLjEtODkuNS0xMTguNi0yMC45LTQ1LjUtMzEuOC05NS0zMS44LTE0NS4xdi03OC4zaDc4LjNjNTAuMSAwIDk5LjYgMTAuOCAxNDUuMSAzMS44IDQ1LjUgMjAuOSA4NiA1MS41IDExOC42IDg5LjVsMTguMiAyMS4yYzM2IDQyIDY0LjkgODkuNyA4NS41IDE0MS4xbDIyLjQgNTYtMTYuOSAxNi45LTk0LjcgOTQuN3ogbTY3LjcgMjEuNmw0OC42LTQ4LjZjMzEuOCAzNi41IDU0IDc0LjUgNzMuOCAxMjIuNC00Ny45LTE5LjgtODUuOS00Mi4xLTEyMi40LTczLjh6Ii8+PHBhdGggZD0iTTM4NS43IDI5MWMtMjUuMSAwLTQ5LjIgMTAtNjcgMjcuNy0xNy44IDE3LjgtMjcuNyA0MS45LTI3LjcgNjdzMTAgNDkuMiAyNy43IDY3YzE3LjggMTcuOCA0MS45IDI3LjcgNjcgMjcuN3M0OS4yLTEwIDY3LTI3LjdjMTcuOC0xNy44IDI3LjctNDEuOSAyNy43LTY3cy0xMC00OS4yLTI3LjctNjctNDEuOS0yNy43LTY3LTI3Ljd6TTQwOCA0MDhjLTUuOSA1LjktMTQgOS4yLTIyLjMgOS4yLTguNCAwLTE2LjQtMy4zLTIyLjMtOS4yLTUuOS01LjktOS4yLTE0LTkuMi0yMi4zIDAtOC40IDMuMy0xNi40IDkuMi0yMi4zIDUuOS01LjkgMTQtOS4yIDIyLjMtOS4yIDguNCAwIDE2LjQgMy4zIDIyLjMgOS4yIDUuOSA1LjkgOS4yIDE0IDkuMiAyMi4zIDAuMSA4LjQtMy4yIDE2LjQtOS4yIDIyLjN6Ii8+PC9zdmc+;rotation=120;direction=east;" vertex="1" parent="1">
          <mxGeometry x="1449.5" y="204.18" width="76" height="76" as="geometry" />
        </mxCell>
        <mxCell id="PKHNTTSIY2TECGYe-GWs-17" value="" style="shape=flexArrow;endArrow=classic;html=1;rounded=0;endWidth=41;endSize=13.748;width=38.4;movable=1;resizable=1;rotatable=1;deletable=1;editable=1;locked=0;connectable=1;strokeWidth=2;fillColor=#d5e8d4;strokeColor=#82b366;" edge="1" parent="1">
          <mxGeometry width="50" height="50" relative="1" as="geometry">
            <mxPoint x="1340" y="270" as="sourcePoint" />
            <mxPoint x="1420" y="210" as="targetPoint" />
          </mxGeometry>
        </mxCell>
        <mxCell id="PKHNTTSIY2TECGYe-GWs-18" value="&lt;span style=&quot;font-size: 15px;&quot;&gt;&lt;b&gt;神经网络加持&lt;/b&gt;&lt;/span&gt;" style="text;html=1;align=center;verticalAlign=middle;whiteSpace=wrap;rounded=0;fillColor=none;strokeColor=none;rotation=-35;" vertex="1" parent="1">
          <mxGeometry x="1341.52" y="227.18" width="73" height="30" as="geometry" />
        </mxCell>
        <mxCell id="PKHNTTSIY2TECGYe-GWs-19" value="" style="endArrow=none;html=1;rounded=0;strokeColor=#FF3333;strokeWidth=2;" edge="1" parent="1">
          <mxGeometry width="50" height="50" relative="1" as="geometry">
            <mxPoint x="1290" y="276" as="sourcePoint" />
            <mxPoint x="1323.52" y="265.68" as="targetPoint" />
          </mxGeometry>
        </mxCell>
        <mxCell id="PKHNTTSIY2TECGYe-GWs-20" value="" style="endArrow=none;html=1;rounded=0;strokeColor=#FF3333;strokeWidth=2;" edge="1" parent="1">
          <mxGeometry width="50" height="50" relative="1" as="geometry">
            <mxPoint x="1330" y="320" as="sourcePoint" />
            <mxPoint x="1341.52" y="288.68" as="targetPoint" />
          </mxGeometry>
        </mxCell>
        <mxCell id="PKHNTTSIY2TECGYe-GWs-21" value="" style="endArrow=none;html=1;rounded=0;fillColor=#f8cecc;strokeColor=#FF3333;strokeWidth=2;" edge="1" parent="1">
          <mxGeometry width="50" height="50" relative="1" as="geometry">
            <mxPoint x="1310" y="300" as="sourcePoint" />
            <mxPoint x="1329.52" y="278.68" as="targetPoint" />
          </mxGeometry>
        </mxCell>
        <mxCell id="PKHNTTSIY2TECGYe-GWs-22" value="" style="shape=flexArrow;endArrow=classic;html=1;rounded=0;endWidth=41;endSize=14.684000000000001;width=38.8;movable=1;resizable=1;rotatable=1;deletable=1;editable=1;locked=0;connectable=1;strokeWidth=2;fillColor=#fff2cc;strokeColor=#d6b656;" edge="1" parent="1">
          <mxGeometry width="50" height="50" relative="1" as="geometry">
            <mxPoint x="1369.24" y="334.9999999999998" as="sourcePoint" />
            <mxPoint x="1449.5" y="394.9999999999998" as="targetPoint" />
          </mxGeometry>
        </mxCell>
        <mxCell id="PKHNTTSIY2TECGYe-GWs-23" value="&lt;span style=&quot;font-size: 15px;&quot;&gt;&lt;b&gt;传统迭代算法&lt;/b&gt;&lt;/span&gt;" style="text;html=1;align=center;verticalAlign=middle;whiteSpace=wrap;rounded=0;fillColor=none;strokeColor=none;rotation=40;flipV=0;flipH=0;" vertex="1" parent="1">
          <mxGeometry x="1368.24" y="346" width="73" height="30" as="geometry" />
        </mxCell>
        <mxCell id="PKHNTTSIY2TECGYe-GWs-24" value="" style="endArrow=none;html=1;rounded=0;strokeColor=#FF3333;strokeWidth=2;" edge="1" parent="1">
          <mxGeometry width="50" height="50" relative="1" as="geometry">
            <mxPoint x="1359.24" y="300" as="sourcePoint" />
            <mxPoint x="1373.24" y="320" as="targetPoint" />
          </mxGeometry>
        </mxCell>
        <mxCell id="PKHNTTSIY2TECGYe-GWs-25" value="" style="endArrow=none;html=1;rounded=0;strokeColor=#FF3333;strokeWidth=2;" edge="1" parent="1">
          <mxGeometry width="50" height="50" relative="1" as="geometry">
            <mxPoint x="1337.24" y="348" as="sourcePoint" />
            <mxPoint x="1358.24" y="346" as="targetPoint" />
          </mxGeometry>
        </mxCell>
        <mxCell id="PKHNTTSIY2TECGYe-GWs-26" value="" style="endArrow=none;html=1;rounded=0;fillColor=#f8cecc;strokeColor=#FF3333;strokeWidth=2;" edge="1" parent="1">
          <mxGeometry width="50" height="50" relative="1" as="geometry">
            <mxPoint x="1337.24" y="318" as="sourcePoint" />
            <mxPoint x="1364.24" y="331" as="targetPoint" />
          </mxGeometry>
        </mxCell>
        <mxCell id="PKHNTTSIY2TECGYe-GWs-27" value="&lt;span style=&quot;font-size: 15px;&quot;&gt;&lt;b&gt;第一阶段&lt;/b&gt;&lt;/span&gt;&lt;span style=&quot;caret-color: rgba(0, 0, 0, 0); color: rgba(0, 0, 0, 0); font-family: monospace; font-size: 0px; text-align: start; white-space: nowrap;&quot;&gt;%3CmxGraphModel%3E%3Croot%3E%3CmxCell%20id%3D%220%22%2F%3E%3CmxCell%20id%3D%221%22%20parent%3D%220%22%2F%3E%3CmxCell%20id%3D%222%22%20value%3D%22%26lt%3Bspan%20style%3D%26quot%3Bfont-size%3A%2015px%3B%26quot%3B%26gt%3B%26lt%3Bb%26gt%3BZF%20%E8%A7%A3%26lt%3B%2Fb%26gt%3B%26lt%3B%2Fspan%26gt%3B%22%20style%3D%22text%3Bhtml%3D1%3Balign%3Dcenter%3BverticalAlign%3Dmiddle%3BwhiteSpace%3Dwrap%3Brounded%3D0%3BfillColor%3Dnone%3BstrokeColor%3Dnone%3Brotation%3D0%3B%22%20vertex%3D%221%22%20parent%3D%221%22%3E%3CmxGeometry%20x%3D%22380%22%20y%3D%22407.18%22%20width%3D%2273%22%20height%3D%2230%22%20as%3D%22geometry%22%2F%3E%3C%2FmxCell%3E%3C%2Froot%3E%3C%2FmxGraphModel%3E&lt;/span&gt;" style="text;html=1;align=center;verticalAlign=middle;whiteSpace=wrap;rounded=0;fillColor=none;strokeColor=none;rotation=0;" vertex="1" parent="1">
          <mxGeometry x="1131.52" y="240" width="73" height="30" as="geometry" />
        </mxCell>
        <mxCell id="PKHNTTSIY2TECGYe-GWs-28" value="&lt;span style=&quot;font-size: 15px;&quot;&gt;&lt;b&gt;第二阶段&lt;/b&gt;&lt;/span&gt;&lt;span style=&quot;caret-color: rgba(0, 0, 0, 0); color: rgba(0, 0, 0, 0); font-family: monospace; font-size: 0px; text-align: start; white-space: nowrap;&quot;&gt;%3CmxGraphModel%3E%3Croot%3E%3CmxCell%20id%3D%220%22%2F%3E%3CmxCell%20id%3D%221%22%20parent%3D%220%22%2F%3E%3CmxCell%20id%3D%222%22%20value%3D%22%26lt%3Bspan%20style%3D%26quot%3Bfont-size%3A%2015px%3B%26quot%3B%26gt%3B%26lt%3Bb%26gt%3BZF%20%E8%A7%A3%26lt%3B%2Fb%26gt%3B%26lt%3B%2Fspan%26gt%3B%22%20style%3D%22text%3Bhtml%3D1%3Balign%3Dcenter%3BverticalAlign%3Dmiddle%3BwhiteSpace%3Dwrap%3Brounded%3D0%3BfillColor%3Dnone%3BstrokeColor%3Dnone%3Brotation%3D0%3B%22%20vertex%3D%221%22%20parent%3D%221%22%3E%3CmxGeometry%20x%3D%22380%22%20y%3D%22407.18%22%20width%3D%2273%22%20height%3D%2230%22%20as%3D%22geometry%22%2F%3E%3C%2FmxCell%3E%3C%2Froot%3E%3C%2FmxGraphModel%3E&lt;/span&gt;" style="text;html=1;align=center;verticalAlign=middle;whiteSpace=wrap;rounded=0;fillColor=none;strokeColor=none;rotation=0;" vertex="1" parent="1">
          <mxGeometry x="1230" y="210" width="73" height="30" as="geometry" />
        </mxCell>
        <mxCell id="PKHNTTSIY2TECGYe-GWs-29" value="" style="ellipse;whiteSpace=wrap;html=1;aspect=fixed;fillColor=#ffe6cc;strokeColor=#d79b00;" vertex="1" parent="1">
          <mxGeometry x="1468.5" y="107" width="50" height="50" as="geometry" />
        </mxCell>
        <mxCell id="PKHNTTSIY2TECGYe-GWs-30" value="&lt;span style=&quot;font-size: 15px;&quot;&gt;&lt;b&gt;ML 解&lt;/b&gt;&lt;/span&gt;" style="text;html=1;align=center;verticalAlign=middle;whiteSpace=wrap;rounded=0;fillColor=none;strokeColor=none;rotation=0;" vertex="1" parent="1">
          <mxGeometry x="1457" y="117" width="73" height="30" as="geometry" />
        </mxCell>
      </root>
    </mxGraphModel>
  </diagram>
</mxfile>
